<?xml version="1.0" encoding="UTF-8" standalone="no"?>
<!-- Created with Inkscape (http://www.inkscape.org/) -->

<svg
   xmlns:dc="http://purl.org/dc/elements/1.1/"
   xmlns:cc="http://creativecommons.org/ns#"
   xmlns:rdf="http://www.w3.org/1999/02/22-rdf-syntax-ns#"
   xmlns:svg="http://www.w3.org/2000/svg"
   xmlns="http://www.w3.org/2000/svg"
   xmlns:xlink="http://www.w3.org/1999/xlink"
   xmlns:sodipodi="http://sodipodi.sourceforge.net/DTD/sodipodi-0.dtd"
   xmlns:inkscape="http://www.inkscape.org/namespaces/inkscape"
   width="210mm"
   height="297mm"
   viewBox="0 0 210 297"
   version="1.1"
   id="svg10566"
   inkscape:version="0.92.2 (5c3e80d, 2017-08-06)"
   sodipodi:docname="pemandangan.svg">
  <defs
     id="defs10560">
    <linearGradient
       inkscape:collect="always"
       xlink:href="#linearGradient4680"
       id="linearGradient4682"
       x1="-1456.8521"
       y1="626.32977"
       x2="-1456.8521"
       y2="701.36951"
       gradientUnits="userSpaceOnUse"
       gradientTransform="matrix(0.53596168,0,0,0.53596168,813.65174,-93.046572)" />
    <linearGradient
       inkscape:collect="always"
       id="linearGradient4680">
      <stop
         style="stop-color:#299aee;stop-opacity:1"
         offset="0"
         id="stop4676" />
      <stop
         style="stop-color:#ffffff;stop-opacity:1"
         offset="1"
         id="stop4678" />
    </linearGradient>
    <linearGradient
       inkscape:collect="always"
       id="linearGradient4670">
      <stop
         style="stop-color:#1286df;stop-opacity:1;"
         offset="0"
         id="stop4666" />
      <stop
         style="stop-color:#1286df;stop-opacity:0;"
         offset="1"
         id="stop4668" />
    </linearGradient>
    <linearGradient
       inkscape:collect="always"
       id="linearGradient5356">
      <stop
         style="stop-color:#69c2ea;stop-opacity:1"
         offset="0"
         id="stop5352" />
      <stop
         style="stop-color:#ffffff;stop-opacity:1"
         offset="1"
         id="stop5354" />
    </linearGradient>
    <linearGradient
       inkscape:collect="always"
       id="linearGradient5209">
      <stop
         style="stop-color:#5abde8;stop-opacity:1"
         offset="0"
         id="stop5205" />
      <stop
         style="stop-color:#aedef4;stop-opacity:1"
         offset="1"
         id="stop5207" />
    </linearGradient>
    <linearGradient
       gradientTransform="matrix(0.146161,0,0,0.146161,827.26077,-88.622552)"
       inkscape:collect="always"
       xlink:href="#linearGradient11534"
       id="linearGradient11536"
       x1="-5172.9565"
       y1="825.7832"
       x2="-5172.9565"
       y2="893.88208"
       gradientUnits="userSpaceOnUse" />
    <linearGradient
       inkscape:collect="always"
       id="linearGradient11534">
      <stop
         style="stop-color:#d2edf8;stop-opacity:1;"
         offset="0"
         id="stop11530" />
      <stop
         style="stop-color:#d2edf8;stop-opacity:0;"
         offset="1"
         id="stop11532" />
    </linearGradient>
    <linearGradient
       gradientTransform="matrix(0.146161,0,0,0.146161,827.26077,-88.622552)"
       inkscape:collect="always"
       xlink:href="#linearGradient11534"
       id="linearGradient11511"
       x1="-5633.8867"
       y1="1222.0176"
       x2="-5633.8867"
       y2="1367.311"
       gradientUnits="userSpaceOnUse" />
    <linearGradient
       gradientTransform="matrix(0.146161,0,0,0.146161,827.26077,-88.622552)"
       inkscape:collect="always"
       xlink:href="#linearGradient11534"
       id="linearGradient11519"
       x1="-4156.8726"
       y1="1237.457"
       x2="-4156.8726"
       y2="1272.8124"
       gradientUnits="userSpaceOnUse" />
    <linearGradient
       gradientTransform="matrix(0.146161,0,0,0.146161,827.26077,-88.622552)"
       inkscape:collect="always"
       xlink:href="#linearGradient11534"
       id="linearGradient11552"
       x1="-4152.0063"
       y1="994.52338"
       x2="-4152.0063"
       y2="1089.8297"
       gradientUnits="userSpaceOnUse" />
    <linearGradient
       gradientTransform="matrix(0.55241954,0,0,0.55241954,827.26077,-88.622552)"
       inkscape:collect="always"
       xlink:href="#linearGradient11534"
       id="linearGradient11503"
       x1="-1470.8881"
       y1="166.93115"
       x2="-1470.8881"
       y2="193.76239"
       gradientUnits="userSpaceOnUse" />
    <linearGradient
       inkscape:collect="always"
       xlink:href="#linearGradient4688-7"
       id="linearGradient4690-8"
       x1="-1226.6508"
       y1="611.04224"
       x2="-1226.6508"
       y2="730.25671"
       gradientUnits="userSpaceOnUse"
       gradientTransform="matrix(0.55241954,0,0,0.55241954,827.26077,-87.160942)" />
    <linearGradient
       inkscape:collect="always"
       id="linearGradient4688-7">
      <stop
         style="stop-color:#107bca;stop-opacity:1"
         offset="0"
         id="stop4684-1" />
      <stop
         style="stop-color:#ffffff;stop-opacity:1"
         offset="1"
         id="stop4686-4" />
    </linearGradient>
    <linearGradient
       inkscape:collect="always"
       xlink:href="#linearGradient4680-0"
       id="linearGradient4682-7"
       x1="-1456.8521"
       y1="626.32977"
       x2="-1456.8521"
       y2="725.92487"
       gradientUnits="userSpaceOnUse"
       gradientTransform="matrix(0.55241954,0,0,0.55241954,827.26077,-87.160942)" />
    <linearGradient
       inkscape:collect="always"
       id="linearGradient4680-0">
      <stop
         style="stop-color:#128fed;stop-opacity:1"
         offset="0"
         id="stop4676-8" />
      <stop
         style="stop-color:#ffffff;stop-opacity:1"
         offset="1"
         id="stop4678-6" />
    </linearGradient>
    <linearGradient
       inkscape:collect="always"
       xlink:href="#linearGradient4696-3"
       id="linearGradient4698-8"
       x1="-1358.1045"
       y1="563.43909"
       x2="-1358.1045"
       y2="739.63007"
       gradientUnits="userSpaceOnUse"
       gradientTransform="matrix(0.55241954,0,0,0.55241954,827.26077,-87.160942)" />
    <linearGradient
       inkscape:collect="always"
       id="linearGradient4696-3">
      <stop
         style="stop-color:#44a7f1;stop-opacity:1"
         offset="0"
         id="stop4692-7" />
      <stop
         style="stop-color:#ffffff;stop-opacity:1"
         offset="1"
         id="stop4694-0" />
    </linearGradient>
    <linearGradient
       inkscape:collect="always"
       xlink:href="#linearGradient5356"
       id="linearGradient5358-6"
       x1="-5010.7832"
       y1="1837.552"
       x2="-5010.7832"
       y2="2491.2737"
       gradientUnits="userSpaceOnUse"
       gradientTransform="matrix(0.146161,0,0,0.146161,827.26077,-87.160942)" />
    <linearGradient
       gradientTransform="matrix(0.55241954,0,0,0.55241954,827.26077,-88.622552)"
       inkscape:collect="always"
       xlink:href="#linearGradient5209"
       id="linearGradient5211-8"
       x1="-1353.2428"
       y1="349.94049"
       x2="-1353.2428"
       y2="489.85825"
       gradientUnits="userSpaceOnUse" />
    <linearGradient
       inkscape:collect="always"
       xlink:href="#linearGradient4670"
       id="linearGradient12316"
       gradientUnits="userSpaceOnUse"
       x1="-1439.2325"
       y1="605.49658"
       x2="-1439.2325"
       y2="670.06183" />
  </defs>
  <sodipodi:namedview
     id="base"
     pagecolor="#ffffff"
     bordercolor="#666666"
     borderopacity="1.0"
     inkscape:pageopacity="0.0"
     inkscape:pageshadow="2"
     inkscape:zoom="0.175"
     inkscape:cx="-158.49865"
     inkscape:cy="447.62477"
     inkscape:document-units="mm"
     inkscape:current-layer="layer1"
     showgrid="false"
     inkscape:window-width="1366"
     inkscape:window-height="705"
     inkscape:window-x="-8"
     inkscape:window-y="-8"
     inkscape:window-maximized="1" />
  <metadata
     id="metadata10563">
    <rdf:RDF>
      <cc:Work
         rdf:about="">
        <dc:format>image/svg+xml</dc:format>
        <dc:type
           rdf:resource="http://purl.org/dc/dcmitype/StillImage" />
        <dc:title />
      </cc:Work>
    </rdf:RDF>
  </metadata>
  <g
     inkscape:label="Layer 1"
     inkscape:groupmode="layer"
     id="layer1">
    <rect
       style="opacity:1;vector-effect:none;fill:url(#linearGradient5211-8);fill-opacity:1;fill-rule:nonzero;stroke:none;stroke-width:3.46698475;stroke-linecap:round;stroke-linejoin:round;stroke-miterlimit:4;stroke-dasharray:none;stroke-dashoffset:0;stroke-opacity:1;paint-order:normal"
       id="rect4610-4"
       width="276.04315"
       height="497.14038"
       x="-42.706795"
       y="-59.228287"
       inkscape:transform-center-x="-219.62183"
       inkscape:transform-center-y="-85.264946" />
    <path
       style="fill:url(#linearGradient5358-6);fill-opacity:1;stroke:none;stroke-width:0.14616099px;stroke-linecap:butt;stroke-linejoin:miter;stroke-opacity:1"
       d="m 124.31769,160.15577 c -11.55971,1.74807 -23.7541,3.79168 -36.223934,6.07157 -7.69183,1.40631 -14.57492,4.72952 -22.39205,6.3017 -6.0939,1.22559 -13.11372,0.67037 -19.1926,1.98168 -14.38417,3.10298 -26.78748,8.02617 -40.3349601,11.48495 -17.1337399,4.37437 -35.0021899,7.36479 -48.8810699,11.99183 v 36.69097 c 2.82463,-0.75925 14.04891,-3.77465 15.53619,-4.13532 -0.41884,-0.61893 -0.86216,-1.2735 -0.86216,-1.2735 l 1.29178,0.24236 -1.19096,-2.07908 0.80758,0.26235 -0.2424,-1.02942 c 0,0 0.96894,0.20179 1.04971,0.12104 0.0807,-0.0807 0.22207,-0.74677 0.22207,-0.74677 0,0 -0.70643,-0.78745 -0.74676,-0.88839 -0.0403,-0.10094 -0.0808,-1.191 -0.0808,-1.191 l -0.58551,-1.75593 1.91784,1.73597 -1.15075,-3.81531 2.11963,1.67542 -1.3526,-3.59296 1.95806,2.01858 -0.52469,-3.87584 0.72654,0.54525 0.10104,-0.78734 1.02943,1.17072 1.17069,-3.6132 0.54524,4.25951 c 0,0 0.78725,-1.2111 0.82758,-1.31201 0.0403,-0.10096 0.32289,2.05882 0.32289,2.05882 l 1.08992,-1.57437 0.50469,2.3617 0.4642,-0.88811 0.38365,2.56352 0.78737,-1.3323 -0.0808,4.23896 1.65516,-1.43306 -0.22208,2.22039 0.90835,-1.15071 -0.12104,2.32143 1.02944,-0.70655 -0.40366,2.03883 1.57462,-1.21125 -0.66627,2.26092 0.54496,-0.48442 0.14446,0.9232 c 1.10053,-0.0707 2.09549,-0.11278 2.8775499,-0.1062 0.23599,0.002 0.45271,0.008 0.6497,0.0188 2.82298,-1.49843 6.18152,-3.0634 8.77795005,-3.60435 5.48104995,-1.14186 21.01061005,-6.39454 28.31868005,-6.16616 7.30807,0.22839 35.16996,-0.91351 39.73753,-0.91351 4.56751,0 28.09036,2e-5 31.2876,0.45676 3.197304,0.45675 17.128214,0.45675 22.609264,0.9135 5.48105,0.45676 39.9659,5.48104 39.9659,5.48104 0,0 22.15257,-2.28375 26.49173,-3.19727 4.33914,-0.9135 12.78911,-3.42563 18.04174,-2.9689 5.25268,0.45677 13.93092,2.28378 14.84445,2.05539 0.63623,-0.15905 7.66338,-1.07368 11.95868,-1.62633 v -43.48914 c -1.62484,0.49966 -2.93778,0.92435 -2.93778,0.92435 -10.83819,-1.017 -19.20612,-4.61515 -24.32214,-5.13848 -16.69507,3.20499 -76.39947,-16.31211 -81.75881,-11.30436 z m -151.488424,70.38792 c 0.59849,0.8845 1.24184,1.83644 1.27747,1.89581 -0.0353,-0.0594 -0.67898,-1.01131 -1.27747,-1.89581 z m 14.94864,2.46419 c -0.0226,0.0423 -0.042,0.0802 -0.056,0.10906 0.0149,-0.0303 0.0337,-0.0673 0.056,-0.10906 z m 172.866224,2.88324 c -0.20258,0.0741 -0.42305,0.15704 -0.65826,0.24725 0.23516,-0.0902 0.45574,-0.17316 0.65826,-0.24725 z m -0.97546,0.37084 c -0.13755,0.0535 -0.27063,0.10494 -0.41735,0.16301 0.1465,-0.058 0.28002,-0.10956 0.41735,-0.16301 z m -1.09992,0.43933 c -0.35808,0.14442 -0.70588,0.2835 -1.10419,0.44791 0.39858,-0.16449 0.74593,-0.30343 1.10419,-0.44791 z m -1.99231,0.81902 c -0.37592,0.15713 -0.73957,0.3081 -1.1413,0.47818 0.40095,-0.16971 0.76605,-0.32135 1.1413,-0.47818 z m -2.47214,1.04625 c -0.30266,0.12957 -0.59262,0.25277 -0.90524,0.38738 0.312,-0.13434 0.60313,-0.25809 0.90524,-0.38738 z m -2.51157,1.08336 c -0.2751,0.11951 -0.54192,0.23476 -0.82189,0.35683 0.27964,-0.12191 0.54719,-0.23749 0.82189,-0.35683 z m -2.71999,1.18815 c -0.20054,0.0881 -0.3967,0.17374 -0.59861,0.26261 0.20158,-0.0887 0.39841,-0.17469 0.59861,-0.26261 z m -2.62003,1.15529 c -0.2034,0.09 -0.40437,0.17885 -0.60804,0.2692 0.20329,-0.0902 0.40504,-0.17934 0.60804,-0.2692 z"
       id="path4596-0"
       inkscape:connector-curvature="0"
       sodipodi:nodetypes="cssssccccccccccccccccccccccccccccccccccccccccccccccscsccccccccccccccccccccccccccccccccccccccc" />
    <path
       style="fill:url(#linearGradient4698-8);fill-opacity:1;stroke:none;stroke-width:0.14616099px;stroke-linecap:butt;stroke-linejoin:miter;stroke-opacity:1"
       d="m 68.137056,218.04977 c -4.56757,0 -32.42946,1.1419 -39.73753,0.91351 -7.30807,-0.22838 -22.8376301,5.0243 -28.31868005,6.16617 -2.59643005,0.54095 -5.95497005,2.10593 -8.77795005,3.60436 0.20942,0.0113 0.39642,0.0276 0.5564,0.0497 3.31148,0.45676 28.4527501,5.33162 31.3595301,6.13906 2.90672,0.80743 20.83191,4.68308 25.99951,6.62092 5.16756,1.93784 10.98089,2.58358 13.56472,3.22952 2.58378,0.64595 18.24791,6.13672 23.41546,8.07455 4.6674,1.75027 15.507254,5.60053 21.016374,7.28293 2.02333,-1.30864 4.15143,-2.6916 4.98315,-3.24609 1.45341,-0.96892 14.21065,-5.97498 15.66408,-6.62092 1.45335,-0.64594 26.16104,-11.95001 32.78201,-14.37232 6.62091,-2.4223 14.85666,-4.19877 15.66408,-4.84471 0.78217,-0.62576 6.11086,-2.76696 7.32402,-2.75337 v 0 c 0.0392,0 0.0742,0.004 0.10448,0.009 0.70847,0.11807 28.39844,13.25628 43.98618,20.66778 l 0.4342,3.20672 -1.83441,-1.89096 1.26718,3.36598 -1.98545,-1.56952 1.07794,3.57409 -1.09446,-0.99087 0.0354,-1.88353 -0.73765,1.24809 -0.35941,-2.40168 -0.43476,0.83215 -0.47303,-2.2127 -1.02086,1.47504 c 0,0 -0.26495,-2.0235 -0.30284,-1.92893 -0.037,0.0945 -0.7751,1.22925 -0.7751,1.22925 l -0.51066,-3.99002 -1.09678,3.38482 -0.96462,-1.09677 -0.0936,0.73764 -0.68086,-0.5107 0.49188,3.6309 -1.83443,-1.89096 1.26693,3.36599 -1.98545,-1.56952 1.07793,3.57409 -1.79674,-1.62632 0.54866,1.64516 c 0,0 0.037,1.02109 0.0745,1.11562 0.0276,0.0701 0.33594,0.42116 0.52614,0.63546 l 16.78935,-2.08737 v -4.70484 c 0,0 0.006,0.002 0.006,0.002 v -32.47392 c -4.29529,0.55265 -11.32244,1.46727 -11.95867,1.62632 -0.91354,0.22839 -9.59177,-1.59863 -14.84445,-2.05539 -5.25263,-0.45674 -13.7026,2.0554 -18.04174,2.96889 -4.33915,0.91353 -26.49168,3.19727 -26.49168,3.19727 0,0 -34.48484,-5.02428 -39.96589,-5.48103 -5.48105,-0.45675 -19.41202,-0.45675 -22.609314,-0.91351 -3.19724,-0.45674 -26.72004,-0.45675 -31.28756,-0.45675 z m -79.6863,12.26697 c -1.6535,0.95825 -2.75762,1.66402 -2.75762,1.66402 l 2.08538,1.02599 c 0.18661,-0.35214 0.61976,-1.09194 0.61976,-1.09194 z m 2.0268799,3.73796 -0.2287,0.16758 0.19699,0.097 z m 217.8415741,12.35345 -1.0971,3.38513 -0.96459,-1.09708 -0.0936,0.73767 -0.68086,-0.51071 0.49187,3.6309 -1.83442,-1.89096 1.2672,3.36599 -1.98573,-1.56951 1.04054,3.4499 -0.0508,0.0443 -1.29775,-1.17499 0.0304,-1.63461 -0.73765,1.24807 -0.35913,-2.40166 -0.43502,0.83215 -0.47277,-2.21268 -1.02108,1.47503 c 0,0 -0.26473,-2.02319 -0.30263,-1.92864 -0.037,0.0945 -0.77536,1.22897 -0.77536,1.22895 l -0.51038,-3.99003 -1.09706,3.38512 -0.96436,-1.09678 -0.0936,0.73737 -0.68086,-0.5107 0.4916,3.63089 -1.83442,-1.89095 1.2672,3.36599 -1.98573,-1.56953 1.07794,3.57409 -1.79647,-1.62633 0.54838,1.64517 c 0,0 0.037,1.02136 0.0745,1.11591 0.037,0.0945 0.69969,0.83186 0.69969,0.83186 0,0 -0.13253,0.62407 -0.20781,0.69969 -0.0238,0.0241 -0.13662,0.0199 -0.27407,0.005 l 0.0171,-0.91237 -0.49558,0.83815 c -0.12811,-0.0237 -0.23097,-0.044 -0.23097,-0.044 l 0.0731,0.31116 -0.0843,0.14273 -0.35907,-2.40167 -0.43508,0.83216 -0.47244,-2.21269 -1.02142,1.47502 c 0,0 -0.26472,-2.02347 -0.30262,-1.92892 -0.037,0.0945 -0.77531,1.22924 -0.77531,1.22924 l -0.51044,-3.99002 -1.09705,3.38482 -0.96436,-1.09677 -0.0936,0.73764 -0.68115,-0.51071 0.49182,3.63092 -1.83442,-1.89098 1.2672,3.366 -1.98573,-1.56952 1.0106,3.35057 30.38578,-3.89182 0.24577,-1.24037 -0.96457,0.66201 0.1139,-2.17472 -0.851,1.07794 0.20809,-2.08024 -1.55069,1.34259 0.0745,-3.97118 -0.73765,1.24805 -0.35913,-2.40164 -0.43509,0.83214 -0.4727,-2.21268 -1.02115,1.47503 c 0,0 -0.26461,-2.0232 -0.30262,-1.92865 -0.037,0.0945 -0.77533,1.22895 -0.77533,1.22895 z m -5.22103,9.18361 0.15363,0.46074 c 0,0 0.0199,0.53538 0.0447,0.86641 l -0.22694,0.1964 z m -21.911,4.19014 -1.07335,3.31146 1.47275,-0.1887 z m 2.35512,1.24807 0.51928,1.55781 1.05252,-0.13502 z m -10.59181,0.52955 -0.82902,2.55724 1.1376,-0.1456 z m 6.17534,0.51041 -0.0937,0.73766 -0.68112,-0.5107 0.13616,1.00457 1.54722,-0.19811 z m 3.35141,0.46989 c 0,-0.002 -0.006,-8e-5 -0.006,0.003 -0.01,0.0257 -0.0752,0.13293 -0.16016,0.26891 l 0.21954,-0.028 c -0.0243,-0.13982 -0.0442,-0.23682 -0.0552,-0.24376 z m -11.58809,1.30774 -0.0553,0.4342 0.39255,-0.0502 z m -0.7745,0.22696 0.0398,0.2943 0.30091,-0.0385 z"
       id="path4594-3"
       inkscape:connector-curvature="0" />
    <path
       sodipodi:type="inkscape:offset"
       inkscape:radius="0"
       inkscape:original="M -1506.6484 560.99805 C -1518.9796 561.04575 -1561.8548 564.17061 -1564.7617 564.75195 C -1567.0078 565.20119 -1572.1504 563.59825 -1574.832 562.67578 L -1574.832 678.77734 L -1193.2754 678.77734 C -1193.2754 678.77734 -1321.735 621.71132 -1325.5195 620.69727 C -1329.304 619.68321 -1347.9631 614.68335 -1354.2383 613.00195 C -1360.5134 611.32055 -1383.8956 595.55208 -1389.4766 592.6582 C -1395.0577 589.76432 -1404.3585 589.76336 -1406.2188 589.55664 C -1408.0792 589.34995 -1454.7949 570.33398 -1454.7949 570.33398 C -1454.7949 570.33398 -1496.1364 561.44466 -1504.6113 561.03125 C -1505.141 561.00535 -1505.8263 560.99495 -1506.6484 560.99805 z "
       style="fill:url(#linearGradient12316);fill-opacity:1;stroke:none;stroke-width:0.26458332px;stroke-linecap:butt;stroke-linejoin:miter;stroke-opacity:1"
       id="path4588-6"
       d="m -1506.6484,560.99805 c -12.3312,0.0477 -55.2064,3.17256 -58.1133,3.7539 -2.2461,0.44924 -7.3887,-1.1537 -10.0703,-2.07617 v 116.10156 h 381.5566 c 0,0 -128.4596,-57.06602 -132.2441,-58.08007 -3.7845,-1.01406 -22.4436,-6.01392 -28.7188,-7.69532 -6.2751,-1.6814 -29.6573,-17.44987 -35.2383,-20.34375 -5.5811,-2.89388 -14.8819,-2.89484 -16.7422,-3.10156 -1.8604,-0.20669 -48.5761,-19.22266 -48.5761,-19.22266 0,0 -41.3415,-8.88932 -49.8164,-9.30273 -0.5297,-0.0259 -1.215,-0.0363 -2.0371,-0.0332 z"
       transform="matrix(0.55241954,0,0,0.55241954,827.26076,-71.093022)" />
    <path
       style="fill:url(#linearGradient4682-7);fill-opacity:1;stroke:none;stroke-width:0.14616099px;stroke-linecap:butt;stroke-linejoin:miter;stroke-opacity:1"
       d="m -9.3468041,228.71498 c -0.7820599,-0.007 -1.7770199,0.0355 -2.8775499,0.10619 l 0.21898,1.39823 0.46414,-0.14131 -0.0605,1.83672 c 0,0 -0.68611,1.17084 -0.70655,1.27177 -0.0199,0.10093 0.0608,0.60548 0.0608,0.60548 l 0.80731,0.26264 0.70654,0.8881 1.2112899,-0.8881 -0.26267,2.20013 0.76709,0.82756 0.8884,0.94891 c 0,0 -0.0811,1.31187 -0.0204,1.41279 0.0606,0.10096 0.70654,0.12133 0.70654,0.12133 l -1.292,2.8864 0.84786,-0.20183 0.0403,0.82759 1.63494,-1.75595 -0.36343,2.01859 0.60578,-0.48447 c 0,0 -0.0605,1.17077 0.0204,0.96889 0.0807,-0.20187 0.94889,-0.16157 0.94889,-0.16157 l -1.06993,3.45193 -0.22212,1.61461 0.94894,-1.11021 0.46415,2.13992 c 0,0 -0.5854,1.27149 -0.62573,1.35225 -0.0403,0.0807 0.74677,-0.54495 0.74677,-0.54495 l 0.54495,0.66629 0.68655,1.87723 0.10076,2.11934 1.29206,-0.76705 -0.82786,3.25008 1.23151,-1.13047 -0.0605,2.46277 0.88807005,-0.76707 0.14131,1.37255 1.27178,-0.50472 -1.00944,2.01857 -0.92861005,2.56353 1.19096005,0.0608 -0.90835005,0.96889 c 0,0 0.40388005,1.00934 0.44420005,1.3323 0.0403,0.32297 -1.33232005,0.16129 -1.33232005,0.16129 0,0 0.0607,0.848 0.16158,0.8884 0.10093,0.0404 -0.4442,0.26234 -0.4442,0.26234 0,0 -0.42371,0.2624 -0.38338,0.34313 0.0403,0.0807 0.54502,0.58543 0.62579,0.70655 0.0808,0.12113 -0.0808,0.666 -0.0808,0.666 l -0.82758,0.46446 0.14132,0.666 0.8073,0.20183 0.32289,0.56522 0.56523,0.0808 0.30057005,0.66089 c 3.00090995,0.73196 5.73986995,2.61061 7.20615995,2.9349 0.54236,0.0571 1.68426,0.0286 1.82701,0.0857 0.14263,0.0571 0.68517,0.28545 1.37028,0.37109 0.6851101,0.0856 2.3693801,0.14271 2.7405001,0.19983 0.37105,0.0571 4.31058,1.31316 4.48188,1.34173 0.17125,0.0286 1.25609,0.0571 1.76995,0.11419 0.51387,0.0571 1.68428,0.19979 2.19808,0.14272 0.51392,-0.0571 3.25442,-0.0856 3.96809,-0.22838 0.71367,-0.14276 5.68086,-0.11418 7.22238,0.31403 1.54153,0.42822 5.88068,0.99911 7.36514,1.28461 0.90309,0.17367 2.63261,0.54734 4.47051,0.87183 5.71356,0.12498 12.71598,0.30837 19.50505,0.49416 11.94176,-4.9886 38.785654,-16.24793 40.197704,-17.14652 0.75978,-0.4835 2.22485,-1.4279 3.73711,-2.40594 -5.50912,-1.68241 -16.348974,-5.53267 -21.016364,-7.28294 -5.16755,-1.93783 -20.83169,-7.42859 -23.41546,-8.07453 -2.58384,-0.64594 -8.39717,-1.29168 -13.56472,-3.22954 -5.16761,-1.93784 -23.09279,-5.81349 -25.99952,-6.62091 -2.90677,-0.80744 -28.0480501,-5.68231 -31.3595301,-6.13905 -0.31045,-0.0428 -0.7193,-0.0645 -1.20609,-0.0685 z m -17.8239299,1.82871 c -1.48728,0.3607 -12.71156,3.3761 -15.53619,4.13533 v 31.27502 l 0.0814,0.002 1.37022,0.14273 c 1.91182,-0.23772 3.83374,-0.31258 5.46222,-0.3126 1.62848,0 2.96356,0.0764 3.70171,0.14131 l -1.95662,-0.24178 c 0,0 -1.3932,-2.38174 -1.41309,-2.46248 -0.0204,-0.0808 2.15985,0.9486 2.15985,0.9486 0,0 -0.44409,-1.87733 -0.48441,-2.18012 -0.0403,-0.30279 1.19096,0.88837 1.19096,0.88837 l 0.0199,-1.89751 -2.44246,-1.06994 1.27178,0.18156 -0.78737,-1.13018 0.94862,0.20182 -0.94862,-1.21125 2.05882,-1.87725 -1.27145,-3.77478 -1.93806,-4.13818 2.88667,2.24066 -1.21129,-3.55269 2.60411,1.35256 -1.85702,-4.19869 3.14902,1.13046 -0.60573,-2.0591 3.35081,1.91779 -2.32143,-2.34172 -0.94862,-5.65203 2.8664,1.77647 -1.77648,-3.55267 1.51413,1.29175 -1.21123,-2.84616 3.89582,0.90838 -2.46246,-2.78561 c 0,0 1.97805,0.74693 1.9175,0.64601 -0.0353,-0.0594 -0.67898,-1.01132 -1.27747,-1.89581 z m -4.92067,35.38353 2.07135,0.77162 c -0.51254,-0.28037 -2.07135,-0.77162 -2.07135,-0.77162 z"
       id="path4592-8"
       inkscape:connector-curvature="0" />
    <path
       style="fill:url(#linearGradient4690-8);fill-opacity:1;stroke:none;stroke-width:0.14616099px;stroke-linecap:butt;stroke-linejoin:miter;stroke-opacity:1"
       d="m 183.63223,228.29304 v 0 c -1.21316,-0.0136 -6.54185,2.12763 -7.32402,2.75338 -0.80742,0.64595 -9.04317,2.42242 -15.66408,4.84472 -6.62097,2.42231 -31.32866,13.72637 -32.78201,14.37231 -1.45343,0.64595 -14.21067,5.65201 -15.66408,6.62092 -1.45336,0.96892 -6.94392,4.52162 -8.72026,5.65203 -1.50591,0.95831 -32.553104,13.96062 -42.904234,18.27899 6.80537,0.81604 17.67251,2.2202 19.32722,2.39138 2.34155,0.24223 25.514884,2.74536 28.179374,3.22982 2.66454,0.48445 17.03684,0.7266 20.02433,0.88811 0.71549,0.0387 1.4364,0.11055 2.18442,0.21294 l -0.0392,-0.28887 0.46391,0.34798 0.0639,-0.50272 0.52696,0.5992 c 0.0564,0.009 0.11225,0.0185 0.16904,0.0282 l 0.70854,-2.18671 0.30372,2.37284 c 0.079,0.0154 0.1576,0.0305 0.23754,0.0465 0.1492,-0.2317 0.31934,-0.49789 0.33509,-0.53783 0.0127,-0.0322 0.064,0.29502 0.11219,0.63089 0.16159,0.0335 0.32842,0.0699 0.4942,0.10563 l 0.29571,-0.42735 0.10965,0.51385 c 0.77638,0.17168 1.61358,0.36907 2.50275,0.58492 l -0.48934,-1.14987 2.48699,0.57979 -1.57207,-1.7782 c 0,0 1.26222,0.47662 1.22411,0.41223 -0.0387,-0.0644 -1.36598,-2.02313 -1.36598,-2.02313 l 0.82505,0.15473 -0.76052,-1.32746 0.51557,0.16758 -0.15473,-0.65716 c 0,-3e-5 0.61916,0.12885 0.66997,0.0774 0.0514,-0.0515 0.14193,-0.47673 0.14193,-0.47673 0,0 -0.45133,-0.50286 -0.47675,-0.56724 -0.0254,-0.0644 -0.0508,-0.7602 -0.0508,-0.7602 l -0.3737,-1.12105 1.22409,1.1082 -0.73448,-2.43564 1.35308,1.06967 -0.86353,-2.29377 1.25007,1.28862 -0.33511,-2.47417 0.46415,0.34798 0.0637,-0.50271 0.65745,0.74764 0.74737,-2.30688 0.34768,2.7191 c 0,0 0.50299,-0.77317 0.52839,-0.83756 0.026,-0.0644 0.20639,1.3143 0.20639,1.3143 l 0.69572,-1.00514 0.32201,1.50786 0.29658,-0.56695 0.24468,1.63632 0.50269,-0.85041 -0.0508,2.70626 1.05682,-0.91494 -0.14184,1.41737 0.58004,-0.73452 -0.0779,1.48188 0.65749,-0.45105 -0.25781,1.30175 1.00511,-0.77334 -0.42503,1.44335 0.3477,-0.30918 0.23206,1.48188 0.29633,-0.0902 -0.0381,1.17271 c 0,0 -0.43835,0.74748 -0.45105,0.81188 -0.0127,0.0644 0.0381,0.38654 0.0381,0.38654 l 0.51557,0.16756 0.45105,0.56696 0.77307,-0.56696 -0.16755,1.40451 0.48983,0.52842 0.56694,0.60548 c 0,0 -0.0442,0.7357 -0.0177,0.87554 2.66244,0.42276 5.24892,0.82236 7.20012,1.14417 l -0.32687,-0.65374 0.87244,0.74452 c 0.0204,0.003 0.0436,0.007 0.0642,0.0108 l -0.74361,-1.74763 2.4876,0.58006 -1.57241,-1.77846 c 0,0 1.26223,0.47686 1.22411,0.41249 -0.0387,-0.0645 -1.36598,-2.02313 -1.36598,-2.02313 l 0.825,0.15444 -0.76046,-1.32715 0.5155,0.16756 -0.15466,-0.65714 c 0,0 0.61942,0.12854 0.67025,0.0771 0.0514,-0.0515 0.14158,-0.47673 0.14158,-0.47673 0,0 -0.45133,-0.50253 -0.47675,-0.56695 -0.0254,-0.0644 -0.0508,-0.7602 -0.0508,-0.7602 l -0.37393,-1.12134 1.22438,1.10822 -0.7345,-2.43535 1.3531,1.06965 -0.86326,-2.29376 1.25006,1.28861 -0.33509,-2.47417 0.46359,0.3477 0.0639,-0.50244 0.65743,0.74738 0.74737,-2.30661 0.34802,2.71912 c 0,0 0.50243,-0.77346 0.52784,-0.83787 0.026,-0.0644 0.20638,1.31459 0.20638,1.31459 l 0.696,-1.00512 0.322,1.50756 0.29632,-0.56696 0.24521,1.63661 0.50215,-0.85042 -0.0304,1.60436 0.72963,0.45191 0.30659,-0.26522 -0.0425,0.42878 0.4579,0.28375 0.0232,-0.0294 v 0.0423 l 0.95088,0.58921 -1.66428,-3.3283 1.41823,1.21039 -1.1345,-2.6663 3.64977,0.85099 -2.30718,-2.60978 c 0,0 1.85271,0.69971 1.79675,0.60521 -0.0566,-0.0945 -2.00484,-2.96918 -2.00484,-2.96918 l 1.21041,0.22694 -1.11567,-1.94776 0.75621,0.24579 -0.22667,-0.96431 c 0,0 0.90863,0.18886 0.9832,0.11332 0.0754,-0.0756 0.2081,-0.69969 0.2081,-0.69969 0,0 -0.66269,-0.73765 -0.6997,-0.83214 -0.0376,-0.0945 -0.0745,-1.11562 -0.0745,-1.11562 l -0.5484,-1.64517 1.79708,1.62634 -1.07827,-3.57411 1.98545,1.56952 -1.26718,-3.36599 1.83442,1.89096 -0.49156,-3.6309 0.68086,0.51071 0.0936,-0.73766 0.96432,1.09678 1.09704,-3.38482 0.51044,3.99002 c 0,0 0.73831,-1.13474 0.77532,-1.22923 0.0381,-0.0946 0.30261,1.92891 0.30261,1.92891 l 1.02116,-1.47502 0.4727,2.21269 0.38399,-0.73395 -0.12678,-0.41964 1.98573,1.56951 -1.2672,-3.36598 1.83442,1.89096 -0.49182,-3.63091 0.68113,0.5107 0.0936,-0.73764 0.96431,1.09678 1.09706,-3.38483 0.51042,3.99002 c 0,0 0.73832,-1.13475 0.77532,-1.22923 0.0381,-0.0946 0.30262,1.92892 0.30262,1.92892 l 1.02115,-1.47503 0.4727,2.21269 0.41393,-0.7919 c -0.19263,-0.21732 -0.49104,-0.55765 -0.51811,-0.62661 -0.0376,-0.0945 -0.0745,-1.11562 -0.0745,-1.11562 l -0.5484,-1.64517 1.79646,1.62633 -1.07793,-3.57409 1.98572,1.56951 -1.26718,-3.36597 1.83442,1.89095 -0.49183,-3.63089 0.68114,0.5107 0.0936,-0.73767 0.96435,1.09678 1.09704,-3.38482 0.51044,3.99003 c 0,0 0.73832,-1.13473 0.77533,-1.22924 0.0381,-0.0945 0.30261,1.92893 0.30261,1.92893 l 1.02143,-1.47502 0.47242,2.21267 0.43509,-0.83215 0.35908,2.40167 0.0842,-0.14273 -0.0731,-0.31118 c 0,0 0.10287,0.0203 0.23096,0.044 l 0.49557,-0.83813 -0.0171,0.91233 c 0.13744,0.0151 0.2503,0.0193 0.27405,-0.005 0.0753,-0.0756 0.20783,-0.69968 0.20783,-0.69968 0,0 -0.66269,-0.73737 -0.69971,-0.83186 -0.0376,-0.0946 -0.0745,-1.1159 -0.0745,-1.1159 l -0.54838,-1.64517 1.79646,1.62633 -1.07794,-3.5741 1.98574,1.56952 -1.26719,-3.36599 1.83442,1.89096 -0.4916,-3.6309 0.68085,0.51071 0.0936,-0.73738 0.96437,1.09678 1.09704,-3.38511 0.51038,3.99003 c 0,1e-5 0.73838,-1.13445 0.77538,-1.22896 0.0381,-0.0945 0.30261,1.92864 0.30261,1.92864 l 1.0211,-1.47503 0.47276,2.21269 0.43503,-0.83215 0.35914,2.40167 0.73764,-1.24808 -0.0304,1.63461 1.29775,1.175 0.0508,-0.0443 -1.04053,-3.44991 1.98571,1.56952 -1.26718,-3.36599 1.83442,1.89096 -0.49188,-3.6309 0.68085,0.5107 0.0936,-0.73764 0.96458,1.09705 1.0971,-3.3851 0.51038,3.99002 c 0,0 0.73837,-1.13444 0.77532,-1.22895 0.0381,-0.0946 0.30261,1.92863 0.30261,1.92863 l 1.02116,-1.47502 0.4727,2.21268 0.43509,-0.83215 0.35913,2.40167 0.73765,-1.24808 -0.0745,3.97118 1.5507,-1.34256 -0.20809,2.08022 0.85099,-1.07793 -0.1139,2.17471 0.96457,-0.66201 -0.37851,1.91009 1.01799,-0.78304 c -0.19019,-0.2143 -0.49849,-0.56536 -0.52611,-0.63547 -0.0376,-0.0945 -0.0745,-1.11561 -0.0745,-1.11561 l -0.54866,-1.64517 1.79674,1.62632 -1.07794,-3.57408 1.98546,1.5695 -1.26691,-3.36598 1.83441,1.89096 -0.49188,-3.63091 0.68086,0.51072 0.0936,-0.73766 0.96465,1.09678 1.09676,-3.38483 0.51066,3.99002 c 0,0 0.73808,-1.13473 0.7751,-1.22923 0.0381,-0.0946 0.30284,1.92892 0.30284,1.92892 l 1.02087,-1.47501 0.47304,2.21267 0.43475,-0.83214 0.3594,2.40166 0.73764,-1.24808 -0.0353,1.88354 1.09445,0.99087 -1.07794,-3.5741 1.98546,1.56952 -1.26721,-3.36599 1.83442,1.89096 -0.4342,-3.20668 c -15.58773,-7.41152 -43.27771,-20.54973 -43.98618,-20.6678 -0.0304,-0.005 -0.0653,-0.008 -0.10446,-0.009 z m 49.6996,23.34237 v 51.42841 h 0.006 v -51.42613 c 0,0 -0.006,-0.002 -0.006,-0.002 z m -30.23365,3.95635 -0.0287,1.52355 0.22693,-0.1964 c -0.0249,-0.33103 -0.0447,-0.86641 -0.0447,-0.86641 z m -18.38231,8.86242 0.0734,0.48932 c 0.0425,-0.16499 0.0757,-0.3206 0.0757,-0.3206 0,0 -0.0982,-0.11125 -0.14904,-0.16872 z m -8.16841,2.23268 0.27947,1.86954 0.1881,-0.31859 z"
       id="path4590-8"
       inkscape:connector-curvature="0" />
    <path
       style="fill:#041827;fill-opacity:1;stroke:none;stroke-width:0.04442711px;stroke-linecap:butt;stroke-linejoin:miter;stroke-opacity:1"
       d="m -21.513004,212.20506 -1.17072,3.6132 -1.02941,-1.17072 -0.10106,0.78733 -0.72652,-0.54526 0.5247,3.87584 -1.95804,-2.01855 1.35256,3.59293 -2.11963,-1.67544 1.15074,3.81532 -1.91779,-1.73594 0.58549,1.75593 c 0,0 0.0404,1.09006 0.0808,1.19098 0.0403,0.10094 0.74679,0.88839 0.74679,0.88839 0,0 -0.1414,0.66605 -0.2221,0.74679 -0.0808,0.0807 -1.04967,-0.12103 -1.04967,-0.12103 l 0.24236,1.02939 -0.8076,-0.26234 1.19098,2.07908 -1.29176,-0.24237 c 0,0 2.07907,3.06837 2.13961,3.1693 0.0605,0.10092 -1.9175,-0.64601 -1.9175,-0.64601 l 2.46246,2.78562 -3.89582,-0.90838 1.21125,2.84615 -1.51412,-1.29175 1.77648,3.55267 -2.86642,-1.77647 0.94863,5.65203 2.32145,2.34172 -3.35086,-1.91779 0.60576,2.0591 -3.14902,-1.13047 1.85699,4.1987 -2.60407,-1.35256 1.21126,3.55269 -2.88668,-2.24067 1.93806,4.13819 1.27149,3.77478 -2.05883,1.87725 0.94863,1.21125 -0.94863,-0.20182 0.78734,1.13018 -1.27177,-0.18156 2.44248,1.06994 -0.02,1.89752 c 0,0 -1.23136,-1.19117 -1.19098,-0.88838 0.0403,0.30278 0.48444,2.18014 0.48444,2.18014 0,0 -2.18004,-1.02938 -2.15987,-0.94862 0.0199,0.0807 1.41307,2.46248 1.41307,2.46248 l 1.95663,0.24178 c 0,0 1.55882,0.49126 2.07136,0.77163 l -2.07136,-0.77163 c -0.73814,-0.0649 -2.07322,-0.14093 -3.7017,-0.14131 -1.62849,0 -3.55039,0.0749 -5.4622,0.3126 l -1.37026,-0.14273 -0.0813,-0.002 V 437.91182 H 233.33645 V 301.60217 c 0,0 -0.004,0 -0.004,0 v -52.76526 l -0.22523,-1.05425 -1.02113,1.47503 c 0,0 -0.26471,-2.02349 -0.30259,-1.92893 -0.037,0.0945 -0.77534,1.22924 -0.77534,1.22924 l -0.50615,-3.98946 -1.09707,3.38483 -0.96431,-1.09678 -0.0936,0.73766 -0.68085,-0.51071 0.49158,3.63091 -1.83443,-1.89096 1.26721,3.36599 -1.98545,-1.56952 1.07794,3.57409 -1.0945,-0.99087 0.0354,-1.88354 -0.73766,1.24809 -0.3594,-2.40168 -0.43478,0.83216 -0.47302,-2.21269 -1.02085,1.47503 c 0,0 -0.26499,-2.0235 -0.30289,-1.92893 -0.037,0.0945 -0.77504,1.22924 -0.77504,1.22924 l -0.5107,-3.99002 -1.09678,3.38483 -0.96462,-1.09678 -0.0936,0.73764 -0.68085,-0.5107 0.49188,3.6309 -1.83444,-1.89095 1.26691,3.36598 -1.98544,-1.56952 1.07794,3.57409 -1.79676,-1.62632 0.54868,1.64516 c 0,0 0.037,1.02109 0.0745,1.11562 0.0276,0.0701 0.33592,0.42116 0.52612,0.63546 l -1.018,0.78305 0.37855,-1.91008 -0.96461,0.66201 0.1139,-2.17472 -0.85099,1.07794 0.2081,-2.08024 -1.55068,1.34258 0.0745,-3.97118 -0.73766,1.24807 -0.35912,-2.40166 -0.43506,0.83214 -0.47273,-2.21267 -1.02114,1.47502 c 0,0 -0.26464,-2.0232 -0.3026,-1.92864 -0.037,0.0945 -0.77534,1.22895 -0.77534,1.22895 l -0.51041,-3.99003 -1.09706,3.38512 -0.96461,-1.09707 -0.0936,0.73766 -0.68085,-0.5107 0.49186,3.6309 -1.83444,-1.89096 1.26721,3.36599 -1.98573,-1.56952 1.04053,3.4499 -0.0508,0.0443 -1.29775,-1.17498 0.0303,-1.63461 -0.73766,1.24807 -0.35911,-2.40166 -0.43507,0.83214 -0.47272,-2.21268 -1.02115,1.47504 c 0,0 -0.26469,-2.0232 -0.30259,-1.92864 -0.037,0.0945 -0.77534,1.22896 -0.77534,1.22895 l -0.51043,-3.99004 -1.09705,3.38512 -0.96433,-1.09678 -0.0936,0.73737 -0.68084,-0.5107 0.49158,3.6309 -1.83444,-1.89095 1.2672,3.36598 -1.98572,-1.56952 1.07793,3.57409 -1.79647,-1.62633 0.54838,1.64517 c 0,0 0.037,1.02136 0.0745,1.11591 0.037,0.0945 0.69969,0.83186 0.69969,0.83186 0,0 -0.13253,0.62406 -0.20783,0.69969 -0.0238,0.0241 -0.1366,0.0199 -0.27405,0.005 l 0.0171,-0.91236 -0.49557,0.83814 c -0.12811,-0.0237 -0.23095,-0.044 -0.23095,-0.044 l 0.0731,0.31117 -0.0842,0.14274 -0.35912,-2.40168 -0.43506,0.83215 -0.47245,-2.21268 -1.02141,1.47503 c 0,0 -0.2647,-2.02349 -0.3026,-1.92894 -0.037,0.0945 -0.77534,1.22925 -0.77534,1.22925 l -0.51042,-3.99002 -1.09706,3.38482 -0.96433,-1.09677 -0.0936,0.73764 -0.68112,-0.5107 0.49186,3.6309 -1.83444,-1.89096 1.2672,3.36599 -1.98573,-1.56952 1.07794,3.57409 -1.79646,-1.62632 0.54838,1.64516 c 0,0 0.037,1.02112 0.0745,1.11563 0.0271,0.069 0.3255,0.4093 0.51813,0.62661 l -0.41393,0.79188 -0.47274,-2.21267 -1.02113,1.47503 c 0,0 -0.26471,-2.0235 -0.3026,-1.92893 -0.037,0.0945 -0.77534,1.22924 -0.77534,1.22924 l -0.51042,-3.99003 -1.09707,3.38482 -0.96431,-1.09677 -0.0936,0.73765 -0.68114,-0.5107 0.49186,3.63091 -1.83444,-1.89096 1.26722,3.36598 -1.98574,-1.56952 0.12674,0.41965 -0.38395,0.73393 -0.47274,-2.21267 -1.02112,1.47502 c 0,0 -0.26471,-2.02349 -0.30261,-1.92893 -0.037,0.0945 -0.77533,1.22924 -0.77533,1.22924 l -0.51043,-3.99003 -1.09706,3.38483 -0.96432,-1.09678 -0.0936,0.73766 -0.68085,-0.5107 0.49158,3.6309 -1.83443,-1.89096 1.26721,3.36599 -1.98545,-1.56952 1.07822,3.57409 -1.79704,-1.62632 0.54839,1.64516 c 0,0 0.037,1.02108 0.0745,1.11561 0.037,0.0945 0.69969,0.83216 0.69969,0.83216 0,0 -0.13275,0.62406 -0.2081,0.69969 -0.0746,0.0756 -0.98317,-0.11334 -0.98317,-0.11334 l 0.22667,0.96433 -0.75621,-0.2458 1.11562,1.94777 -1.21039,-0.22695 c 0,0 1.94823,2.87463 2.00485,2.96918 0.056,0.0945 -1.79675,-0.6052 -1.79675,-0.6052 l 2.30717,2.60977 -3.64974,-0.85098 1.13447,2.6663 -1.41823,-1.21041 1.66429,3.32831 -0.95089,-0.58921 v -0.0423 l -0.0231,0.0294 -0.45789,-0.28375 0.0425,-0.42879 -0.3066,0.2652 -0.72966,-0.4519 0.0303,-1.60433 -0.50215,0.8504 -0.24521,-1.63659 -0.29632,0.56694 -0.32202,-1.50757 -0.69597,1.00515 c 0,0 -0.18054,-1.37905 -0.20639,-1.31461 -0.0254,0.0644 -0.52784,0.83786 -0.52784,0.83786 l -0.34799,-2.71911 -0.74737,2.30661 -0.65743,-0.74736 -0.0639,0.50242 -0.4636,-0.3477 0.33514,2.47417 -1.25008,-1.28861 0.86327,2.29376 -1.35313,-1.06967 0.73452,2.43535 -1.22439,-1.10819 0.37396,1.12133 c 0,0 0.0254,0.69579 0.0508,0.7602 0.0254,0.0644 0.47674,0.56694 0.47674,0.56694 0,0 -0.0903,0.42522 -0.14161,0.47675 -0.0508,0.0515 -0.67028,-0.0771 -0.67028,-0.0771 l 0.15473,0.65715 -0.51557,-0.16757 0.7605,1.32716 -0.82502,-0.15444 c 0,0 1.32738,1.95868 1.36598,2.02313 0.0381,0.0644 -1.22409,-0.41251 -1.22409,-0.41251 l 1.57238,1.77849 -2.48761,-0.58008 0.74366,1.74766 c -0.0204,-0.003 -0.0436,-0.007 -0.0642,-0.0108 l -0.87241,-0.7445 0.32686,0.65372 c -1.95122,-0.3218 -4.5377,-0.72141 -7.20014,-1.14416 -0.0267,-0.13985 0.0174,-0.87554 0.0174,-0.87554 l -0.56694,-0.60548 -0.48987,-0.5284 0.16757,-1.40452 -0.77306,0.56694 -0.45104,-0.56694 -0.51557,-0.16758 c 0,0 -0.0507,-0.32209 -0.038,-0.38652 0.0127,-0.0644 0.45104,-0.81188 0.45104,-0.81188 l 0.038,-1.17271 -0.29633,0.0902 -0.23209,-1.48187 -0.3477,0.30916 0.42506,-1.44334 -1.00513,0.77333 0.25779,-1.30173 -0.65746,0.45104 0.0779,-1.48189 -0.58007,0.73452 0.14188,-1.41735 -1.05682,0.91492 0.0508,-2.70626 -0.50271,0.85043 -0.24465,-1.63633 -0.2966,0.56696 -0.32202,-1.50788 -0.69569,1.00515 c 0,0 -0.18053,-1.37875 -0.20639,-1.3143 -0.0254,0.0644 -0.52841,0.83757 -0.52841,0.83757 l -0.34771,-2.71911 -0.74736,2.3069 -0.65744,-0.74767 -0.0636,0.50273 -0.46418,-0.348 0.33513,2.47418 -1.25007,-1.28861 0.86355,2.29375 -1.35313,-1.06965 0.73452,2.43563 -1.22409,-1.1082 0.37367,1.12104 c 0,0 0.0254,0.69579 0.0508,0.76022 0.0254,0.0644 0.47673,0.56722 0.47673,0.56722 0,0 -0.0906,0.42523 -0.14187,0.47674 -0.0508,0.0515 -0.67001,-0.0774 -0.67001,-0.0774 l 0.15473,0.65716 -0.51556,-0.16757 0.76049,1.32743 -0.825,-0.15473 c 0,0 1.32742,1.95871 1.36598,2.02314 0.0381,0.0644 -1.2241,-0.41222 -1.2241,-0.41222 l 1.57208,1.77819 -2.48702,-0.57979 0.4893,1.14988 c -0.88916,-0.21587 -1.72634,-0.41326 -2.50273,-0.58494 l -0.10962,-0.51384 -0.29574,0.42734 c -0.16577,-0.0357 -0.33261,-0.0721 -0.49416,-0.10561 -0.0482,-0.33586 -0.0993,-0.66305 -0.11219,-0.63089 -0.0157,0.0399 -0.18589,0.30613 -0.33513,0.53783 -0.0799,-0.016 -0.15856,-0.0311 -0.23752,-0.0465 l -0.30374,-2.37283 -0.70854,2.18671 c -0.0568,-0.01 -0.11263,-0.0188 -0.169,-0.0283 l -0.52697,-0.59921 -0.064,0.50273 -0.4639,-0.348 0.0391,0.2889 c -0.74802,-0.1024 -1.46895,-0.1743 -2.18443,-0.21297 -2.98748,-0.16149 -17.3598,-0.40364 -20.02434,-0.88809 -2.66452,-0.48446 -25.837834,-2.98759 -28.179374,-3.22982 -2.34155,-0.24223 -23.29669,-2.97746 -24.78115,-2.97746 -1.48445,0 -5.08139,-0.28545 -7.85043,-0.54239 -2.76907,-0.25693 -6.48024,-1.08481 -7.96464,-1.37026 -1.48447,-0.28549 -5.82358,-0.85641 -7.36514,-1.28462 -1.54153,-0.42821 -6.50874,-0.45677 -7.22241,-0.31401 -0.71368,0.14272 -3.45414,0.17125 -3.96805,0.22837 -0.51385,0.0571 -1.68427,-0.0856 -2.19812,-0.14274 -0.51386,-0.0571 -1.59866,-0.0856 -1.76993,-0.11418 -0.1713,-0.0286 -4.11079,-1.28464 -4.48187,-1.34171 -0.37112,-0.0571 -2.05538,-0.1142 -2.7405201,-0.19984 -0.68512,-0.0856 -1.2276,-0.31403 -1.37026,-0.37111 -0.14276,-0.0571 -1.28467,-0.0286 -1.82702,-0.0856 -1.46631,-0.32429 -4.20527,-2.20295 -7.20613995,-2.93493 l -0.30060005,-0.66086 -0.56523,-0.0808 -0.32287,-0.56523 -0.80731,-0.20183 -0.1413,-0.666 0.82758,-0.46446 c 0,0 0.16154,-0.54488 0.0808,-0.66601 -0.0808,-0.12111 -0.58538,-0.62579 -0.62575,-0.70654 -0.0403,-0.0807 0.38338,-0.34313 0.38338,-0.34313 0,0 0.54512,-0.22197 0.4442,-0.26235 -0.10092,-0.0404 -0.16158,-0.88839 -0.16158,-0.88839 0,0 1.37267005,0.16169 1.33229005,-0.16129 -0.0403,-0.32297 -0.44419005,-1.33228 -0.44419005,-1.33228 l 0.90836005,-0.96889 -1.19097005,-0.0608 0.92863005,-2.56353 1.00942,-2.01855 -1.27177,0.5047 -0.1413,-1.37253 -0.88811005,0.76705 0.0605,-2.46275 -1.23152,1.13046 0.82787,-3.25009 -1.29205,0.76706 -0.10077,-2.11933 -0.68655,-1.87726 -0.54497,-0.66629 c 0,0 -0.78718,0.62571 -0.7468,0.54497 0.0403,-0.0807 0.62575,-1.35228 0.62575,-1.35228 l -0.46416,-2.13988 -0.94891,1.11019 0.22209,-1.61462 1.06995,-3.45192 c 0,0 -0.8682,-0.0403 -0.94891,0.16159 -0.0807,0.20186 -0.0203,-0.96889 -0.0203,-0.96889 l -0.60578,0.48444 0.36341,-2.01856 -1.6349,1.75593 -0.0405,-0.82757 -0.84785,0.20181 1.29204,-2.88639 c 0,0 -0.64593,-0.0204 -0.70654,-0.12132 -0.0605,-0.10092 0.0206,-1.41279 0.0206,-1.41279 l -0.8884,-0.94891 -0.76705,-0.82758 0.26263,-2.20013 -1.2112499,0.8881 -0.70654,-0.8881 -0.80732,-0.26262 c 0,0 -0.081,-0.50455 -0.0608,-0.60549 0.0204,-0.10093 0.70654,-1.27178 0.70654,-1.27178 l 0.0605,-1.83672 -0.46418,0.14131 -0.3634,-2.32144 -0.54496,0.48443 0.66627,-2.26092 -1.57465,1.21125 0.40365,-2.03882 -1.02939,0.70654 0.12103,-2.32145 -0.90837,1.15073 0.2221,-2.22039 -1.65517,1.43306 0.0808,-4.23896 -0.78733,1.3323 -0.38367,-2.56353 -0.46418,0.8881 -0.50471,-2.3617 -1.08993,1.57438 c 0,0 -0.28249,-2.15976 -0.32288,-2.05883 -0.0403,0.10093 -0.82758,1.31203 -0.82758,1.31203 z m 224.611194,41.92508 0.15359,0.46075 c 0,0 0.0199,0.53537 0.0448,0.8664 l -0.22696,0.19641 z m -18.3823,8.86243 c 0.0508,0.0575 0.14901,0.16871 0.14901,0.16871 0,0 -0.0332,0.15562 -0.0757,0.3206 z m -8.16846,2.23267 0.4676,1.55096 -0.18813,0.31859 z"
       id="path4542-2"
       inkscape:connector-curvature="0" />
    <path
       style="fill:url(#linearGradient11503);fill-opacity:1;stroke:none;stroke-width:0.14616099px;stroke-linecap:butt;stroke-linejoin:miter;stroke-opacity:1"
       d="m 28.414386,-13.775561 c -5.92503,0.0012 -12.5165,1.285083 -13.77508,3.8501437 0,0 -1.05628,0.856416 -1.25609,1.056243 -5.6193201,14.657577 -18.9782601,-0.875016 -21.8955901,2.426502 -1.6235099,4.673026 -11.2103099,2.131892 -11.4188399,0.856412 -0.11419,-0.742227 -0.91354,-0.570949 -1.82702,-0.51385 -0.91354,0.05709 -1.08479,0.856415 -1.25604,1.313167 -0.1713,0.456756 -0.51391,1.027691 -0.79935,1.541541 -0.28549,0.51385 -1.42734,0.970601 -1.82702,1.256069 -0.39967,0.285474 -1.08478,0.856411 -1.59864,1.25606996 -0.51386,0.399659 -1.02767,0.85641 -1.19897,1.198977 -0.17131,0.342561 -1.42734,1.82702204 -1.42734,2.11248504 0,0.285474 0.11424,1.37026 0.1713,1.827012 0.0571,0.456757 0,0.970601 -0.22837,1.941202 -0.22837,0.970601 -0.62805,1.25607 -0.91354,1.25607 -0.28549,0 -1.02772,-0.285469 -1.71283,-0.913504 -0.68511,-0.628034 -1.08478,-0.799323 -1.4844,-1.256074 -0.39968,-0.456752 -2.74056,-1.884105 -3.02605,-2.055388 -0.28543,-0.171283 -2.05539,0.742226 -2.51213,1.027694 -0.45674,0.285474 -1.19897,0.285474 -1.59864,0.399659 -0.24334,0.06953 -1.05043,-0.09 -1.66715,-0.228376 V 20.962517 h 136.10734 c 0.98082,-0.590752 2.1346,-1.225515 3.05283,-1.613192 1.8168,-0.767068 2.5434,-1.736144 2.78563,-2.341723 0.24224,-0.605579 0.40354,-3.471885 0.32284,-4.238953 -0.0808,-0.767068 -0.44404,-1.695712 -0.96889,-2.745376 -0.15385,-0.3077193 -1.48739,-0.5425473 -3.3069,-0.7319893 -1.76039,-0.18327 -3.53161,-0.969999 -5.57358,-1.09315 -3.04676,-0.183745 -6.15174,0.31768 -6.33968,0.129731 -0.44409,-0.444085 0.28246,-2.13972 0.80731,-2.583794 1.64168,-0.876452 -2.18266,-6.62307304 -7.31602,-4.86471104 -0.108,-0.18695 -0.40399,-0.898941 -0.83217,-1.44134 -0.42823,-0.54239296 -0.59948,-1.39880896 -0.74223,-2.08393096 -0.14274,-0.685138 -0.62804,-4.282061 -0.74223,-4.738813 -0.11418,-0.456763 -1.28454,-1.455902 -1.74134,-1.769919 -0.45674,-0.314012 -2.16962,-0.542399 -2.79761,-0.542399 -0.62805,0 -2.11251,1.455902 -2.85474,2.426504 -0.74223,0.970601 -0.94204,0.770774 -1.59865,0.970601 -0.65655,0.199831 -0.39968,0 -1.19897,-0.08564 -0.7993,-0.08564 -1.71283,-0.656584 -2.82618,-1.370261 -2.41954,-1.242877 -5.89067,-0.355005 -8.50698,0.05709 -6.1265,3.204475 -7.6867,3.525696 -13.41717,0.656583 -0.51375,-0.256919 -0.88492,-0.88496 -1.05623,-1.37026 -0.17125,-0.485295 -0.22837,-1.512994 -0.22837,-1.512994 1.40735,-2.5686457 -3.85119,-3.8510377 -9.77622,-3.8501437 z"
       id="path4649-6"
       inkscape:connector-curvature="0"
       sodipodi:nodetypes="cccccccccscscssscccccccsccssscccccccsscscccccc" />
    <path
       style="fill:url(#linearGradient11552);fill-opacity:1;stroke:none;stroke-width:0.14616099px;stroke-linecap:butt;stroke-linejoin:miter;stroke-opacity:1"
       d="m 188.86662,23.62824 c -0.0187,0.0028 -0.0327,0.0082 -0.0417,0.01713 -0.14269,0.142734 -0.82788,0.371115 -1.9983,0.656583 -1.17047,0.285469 -1.31314,0.742226 -1.62718,1.284619 -0.31399,0.542393 -0.71366,1.570087 -0.88496,1.769913 -0.17125,0.199827 -0.94208,0.970607 -1.25608,1.39881 -0.31399,0.428208 -0.48533,1.056242 -0.62802,1.598635 -0.14276,0.542399 -1.17043,0.856416 -1.54155,0.970602 -0.37112,0.11419 -0.68513,-0.171284 -1.17042,-0.456752 -0.48532,-0.285468 -0.628,-1.027694 -0.97062,-1.313168 -0.34254,-0.285468 -1.3417,-0.4853 -1.3417,-0.4853 0,0 -0.59945,0.14274 -1.31317,-0.199827 -0.71367,-0.342572 -1.199,-0.399664 -1.62718,-0.456757 -0.42823,-0.0571 -1.25609,0.08565 -1.94121,0.171283 -0.68511,0.08564 -0.51382,0.342561 -0.9135,0.856416 -0.39962,0.513839 -1.39881,1.427347 -1.39881,1.541538 0,0.114185 -0.19979,1.084792 -0.28546,1.37026 -0.0856,0.285474 -0.28546,0.799318 -1.05625,1.084792 -0.7708,0.285463 -1.31318,0.456751 -1.3988,0.685127 -0.0857,0.228382 -0.74222,0.88496 -1.11334,0.970601 -0.37112,0.08564 -1.57011,0.827862 -1.74136,0.999145 -0.17132,0.171283 -1.37028,0.856427 -1.48446,0.827867 -0.11418,-0.02856 -0.57096,-0.970601 -0.62804,-1.141884 -0.0571,-0.171284 -1.19894,-0.228376 -1.74136,-0.228376 -0.54244,0 -1.51294,0.114185 -2.25522,-0.08564 -0.74218,-0.199832 -1.39881,-0.542393 -2.02685,-0.428202 -0.62799,0.114185 -1.51297,0.37111 -2.76906,0.05709 -1.25603,-0.314017 -2.94037,0.08564 -3.5113,0.199827 -0.57092,0.114185 -2.2552,2.88326 -2.14103,3.397104 0.11418,0.51385 0.11422,1.627185 -0.17128,2.540688 -0.28544,0.913509 -0.57092,1.284624 -0.74222,1.455902 -0.17126,0.171283 -1.59862,1.056242 -1.9983,1.827011 -0.39967,0.770775 -0.79931,1.084792 -1.76992,1.313168 -0.97049,0.228376 -0.37119,-6e-6 -1.14187,-0.428208 -0.77079,-0.428208 -1.31319,-0.970596 -1.65574,-1.341711 -0.0483,-0.05237 -0.12454,-0.147093 -0.21467,-0.261775 -0.941,-0.425927 -1.8505,-0.825392 -2.72996,-1.199552 -0.73809,-0.314006 -1.35422,-1.336938 -2.05082,-1.616048 -1.12795,-0.45194 -2.30357,-0.132238 -3.32858,-0.497575 -1.29437,-0.461348 -2.7315,0.09266 -3.8747,-0.241507 -1.60577,-0.469385 -2.84736,-1.768013 -4.18928,-2.015425 -2.01952,-0.372342 -3.72275,1.748258 -5.25865,1.782763 -2.49901,0.05615 -4.34492,-1.120495 -6.18387,-0.953758 -1.71985,0.155937 -8.04358,0.146778 -9.4979,1.318305 -1.897,3.198387 1.51002,2.692366 1.88097,4.42251 0.0404,0.20186 -0.20184,0.968889 -0.20184,0.968889 0,0 -0.80531,0.948046 -1.03368,1.319161 -0.22837,0.37111 -0.0571,1.398809 0.0571,2.026844 0.11418,0.628035 1.99826,3.711116 2.31231,3.968041 0.314,0.256919 0.68515,0.770769 0.88497,0.942052 0.19986,0.171283 1.76992,1.084792 1.76992,1.084792 0,0 -1.25608,0.05709 -1.48446,0.114185 -0.22836,0.05709 -0.28548,0.542398 -0.51384,1.256075 -0.22838,0.713676 -0.88495,0.570936 -1.17043,0.37111 -0.28549,-0.199833 0.45675,-0.656584 0.68513,-1.170428 0.22836,-0.513844 0.0286,-0.542399 -0.19983,-0.770775 -0.22838,-0.228375 -1.76989,-1.113335 -2.68343,-1.113335 -0.91347,0 -1.199,0.656584 -1.62717,1.113335 -0.42824,0.456752 -1.31316,1.313162 -1.4559,1.113336 -0.14276,-0.199833 -1.484434,0.11419 -1.798474,0.428208 -0.31399,0.314023 -1.62721,2.226676 -2.42651,2.826156 -0.47488,0.811134 -0.97193,0.756235 -2.34085,-0.336286 -0.37112,0.08564 -1.14187,-0.256924 -2.25522,-0.4853 -1.11329,-0.228376 -1.39882,-0.799324 -1.74138,-0.513844 -0.34254,0.285468 -3.42564,1.741375 -4.2535,2.169583 -0.82786,0.428208 -1.25611,1.455897 -1.65574,1.712821 -0.39962,0.25692 -3.79675,0.913503 -4.76735,0.970596 -0.97061,0.05709 -1.28458,-0.228365 -1.74138,-0.570937 -0.45673,-0.342555 -1.5701,-1.141895 -2.14102,-1.084791 -0.57094,0.05709 -1.02773,2.226659 -1.31317,2.74052 -0.2855,0.513844 -1.31314,1.427347 -1.85556,1.37026 -0.54237,-0.05711 -1.34173,-0.713677 -1.57009,-1.056248 -0.22838,-0.342572 -4.63904,-1.973746 -4.96205,-1.973746 -0.32294,0 -0.84788,0.767201 -0.92863,0.868128 -1.80274,-0.855748 -7.35199,6.020687 -4.55184,8.356869 -0.0145,0.03845 3.32932,0.07043 3.30975,0.09705 h 139.065334 20.64268 10.14963 V 50.221832 c -0.53106,-0.200738 -0.91152,-0.380821 -0.91152,-0.380821 l -3.71426,-0.968883 c 0,0 -2.98744,0.161301 -2.98744,1.210964 0,1.049663 1.21115,2.745442 0.48444,3.391392 -0.72671,0.645944 -0.40366,0.726448 -1.93778,1.614623 -1.53412,0.88818 -3.06839,1.857295 -3.79504,2.422503 -0.72671,0.565203 -1.77628,0.968872 -2.98746,1.453339 -1.17659,0.470639 -2.65308,1.016402 -3.55097,1.417348 -2.63194,-0.304555 -4.74958,-0.551011 -4.8667,-0.569512 -0.38354,-0.06056 -1.87731,-0.181679 -2.86641,-0.141297 -0.98912,0.04033 -2.78542,-0.100938 -3.43136,-0.141309 -0.64595,-0.04038 -0.0203,-0.847793 0.0605,-1.110209 0.0808,-0.26236 0.34316,-0.767167 1.1102,-1.352555 0.76708,-0.585388 1.93777,-1.009232 3.18928,-1.312018 1.2515,-0.302787 1.27164,-0.302737 1.87726,-0.544968 0.60556,-0.24223 0.62584,-0.403708 1.21125,-0.625748 0.58539,-0.222045 1.2919,-0.423888 1.89752,-0.484444 0.60556,-0.06056 1.81674,-0.06081 1.81674,-0.06081 0,0 7.97636,-2.218113 7.80505,-2.731957 -0.17126,-0.51385 -0.62803,-2.169578 -0.62803,-2.397954 0,-0.228376 -1.36378,-2.78283 -2.00972,-3.146173 -0.64595,-0.363348 -1.97816,-0.847715 -3.18928,-0.888097 -1.21113,-0.04038 -2.58375,-0.242187 -3.27007,-0.686271 -0.68633,-0.44409 -0.96893,-0.605833 -1.81674,-0.969176 -0.84779,-0.363343 -2.54344,-0.363205 -3.35084,-0.524694 -0.80748,-0.161488 -1.4933,-2.264074 -1.4933,-2.578086 0,-0.314023 0.77075,-1.513 1.05623,-2.198122 0.2855,-0.685133 -0.39966,-0.999144 -0.51384,-1.198982 -0.11418,-0.199827 0.0856,-2.48359 0.59949,-3.225815 0.51386,-0.74222 2.56922,-1.998301 2.82616,-2.455047 0.25693,-0.456751 -1.62721,-2.312312 -1.08479,-3.140179 0.54237,-0.827867 1.59864,-3.140179 1.34171,-3.596931 -0.25692,-0.456751 -2.34087,0.685133 -3.02599,1.056243 -0.68511,0.37111 -3.02597,0.942063 -3.56839,0.913503 -0.54236,-0.02856 -1.59871,0.285468 -1.99828,0.37111 -0.39968,0.08564 -1.85557,1.9983 -1.85557,1.9983 0,0 -0.74225,-0.142734 -0.79932,-0.513849 -0.0571,-0.37111 -0.79932,-2.255225 -1.25607,-2.769064 -0.45674,-0.513849 -3.19727,-0.456751 -3.68257,-0.399664 -0.4853,0.0571 -2.34084,-0.171278 -2.9689,-0.456752 -0.58878,-0.267625 -1.90513,-0.911697 -2.18499,-0.873541 z"
       id="path4653-2"
       inkscape:connector-curvature="0" />
    <path
       style="fill:url(#linearGradient11519);fill-opacity:1;stroke:none;stroke-width:0.14616099px;stroke-linecap:butt;stroke-linejoin:miter;stroke-opacity:1"
       d="m 222.05002,86.663881 c 0,0 -1.199,0.542387 -1.37025,0.913503 -0.17131,0.371115 -0.4568,1.198972 -1.68427,1.398804 -1.22754,0.199849 -0.94212,-0.199832 -2.65489,-0.371099 -1.71283,-0.171289 -4.22498,0 -4.28206,0.256919 -0.0571,0.25692 -1.79847,0.856416 -2.51215,1.62718 -0.71372,0.770769 -1.42736,1.313173 -1.62717,1.85556 -0.19981,0.542388 -0.25696,2.083931 -0.79932,2.369416 -0.54242,0.285468 -2.39799,0.542388 -2.56925,1.084775 -0.17129,0.542404 -0.59944,1.541549 -0.19981,1.941208 0.0231,0.02309 0.058,0.05309 0.0991,0.08678 h 28.8865 v -8.924664 c -0.4974,-0.134398 -0.97328,-0.286115 -1.12361,-0.411371 -0.34256,-0.285468 -1.11334,-1.398809 -1.85557,-1.655728 -0.74222,-0.256919 -2.91179,-0.171283 -3.51129,-0.05709 -0.59947,0.114185 -2.54065,0.228381 -2.71197,0.114185 -0.1713,-0.114185 -2.08394,-0.228376 -2.08394,-0.228376 z"
       id="path4655-6"
       inkscape:connector-curvature="0" />
    <path
       style="fill:url(#linearGradient11511);fill-opacity:1;stroke:none;stroke-width:0.14616099px;stroke-linecap:butt;stroke-linejoin:miter;stroke-opacity:1"
       d="m 24.641046,69.362638 c -0.86313,-0.01608 -2.1636,0.144453 -2.42051,0.144453 -0.34257,0 -3.76822,0.913508 -4.11079,1.198977 -0.34255,0.285462 -0.34257,0.999139 -0.7993,1.484438 -0.4568,0.485311 -1.82699,1.170438 -2.39797,1.284624 -0.57092,0.114196 -1.11339,0.685127 -1.71281,0.942052 -0.59955,0.256919 -1.74138,-0.02856 -2.9689,-0.314018 -1.2275301,-0.285462 -1.5458201,0.764775 -1.5458201,0.764775 0,0 -0.0805,0.726758 -0.0805,1.130466 0,0.403714 -1.69562,1.533964 -2.01856,1.776195 -0.323,0.24223 -1.45351,1.37263 -2.26093,2.018568 -0.80741,0.645945 -1.45332,2.018851 -1.45332,2.018851 l -1.61492,-1.211252 c -1.43394995,-4.438365 -3.49617,6.949405 -3.4719,7.993461 0.0225,0.968668 -0.72689,2.099322 -2.34172,3.068238 -1.61489,0.968916 -3.2297,0.726907 -3.63345,0.888385 -0.40372,0.161494 -1.29172,1.695541 -2.6643199,3.47189 -1.37264,1.776355 -2.82623,3.310358 -3.47217,3.875566 -0.646,0.565183 -1.6147,-0.322812 -2.26064,-0.726526 -0.64594,-0.403725 0,-2.503212 0,-3.875836 0,-1.372647 1.29186,-2.664502 2.01856,-3.552693 0.80239,-0.888175 2.35349,-3.3911 1.61491,-3.3911 -0.8415,0 -2.89153,1.69563 -3.47218,2.099344 -0.64594,0.403725 -5.0868,-1.049669 -5.0868,-1.049669 -0.22494,-4.51851 -7.09245,0.714229 -8.63949,7.024584 -1.21118,0.968899 -0.64604,2.018469 -0.16158,3.391093 0.48442,1.372646 1.61501,1.453516 2.90695,1.776486 1.29189,0.32297 -0.40374,2.66457 -0.48445,3.14902 -0.0807,0.48447 -3.39127,0.72676 -4.76393,1.13047 -4.39468,0.0308 -4.51364,2.41069 -6.9298,4.74253 h 87.41255 c 1.23394,-0.44421 2.48319,-2.79859 3.28835,-2.96632 1.93783,-0.40373 4.92545,-0.32288 6.86328,-0.60549 1.93789,-0.2826 2.05908,-4.15834 2.82615,-6.01544 0.76704,-1.857095 3.2295,-2.260632 4.68288,-3.0277 1.45336,-0.767067 1.13037,-1.413244 0.76705,-2.220682 -0.36337,-0.807422 -4.19851,-0.888042 -6.74196,-0.807306 -2.54339,0.08074 -0.72675,1.735929 -1.41308,2.704828 -0.68633,0.968928 -3.5123,0.646033 -4.52157,0.646033 -1.00933,0 -3.22957,-0.444156 -4.92522,-1.130471 -1.69561,-0.686326 -4.88513,-0.524744 -5.61179,-0.121035 -0.72671,0.403713 -2.90679,2.62413 -3.43164,2.785625 -0.5248,0.161478 -5.65188,0.201818 -6.58039,0.201818 -0.92855,0 -2.34158,0.72684 -3.35085,1.29205 -1.00927,0.5652 -2.58397,0.88802 -3.95662,1.00914 -1.37266,0.12111 -2.42237,0.52482 -3.71426,0.48443 -1.29189,-0.0404 -1.49361,-0.8478 -1.57438,-1.81673 -0.0808,-0.96892 -0.12103,-1.695501 -0.12103,-1.856979 0,-0.161494 -0.28957,-4.743102 -0.31831,-5.599512 -0.0286,-0.856416 -0.54236,-1.541533 -0.59948,-1.912654 -0.0571,-0.371115 1.37024,-1.941207 1.99828,-2.512138 0.62806,-0.570948 1.02766,-1.084793 0.88496,-1.855561 -0.14274,-0.77078 3.31147,-1.37026 4.99574,-1.969752 1.68427,-0.59948 2.42649,-0.4853 3.16873,-1.284624 0.74206,-0.799312 0.51384,-1.941191 0.77076,-2.569231 0.25694,-0.62804 1.17045,-3.083092 1.17045,-3.62548 0,-0.542387 0.88495,-2.169572 0.88495,-2.711977 0,-0.542387 -1.19896,-1.627179 -1.82702,-1.827011 -0.62804,-0.199816 -1.65555,-0.999139 -1.68427,-1.541531 -0.0286,-0.542398 -0.99911,-0.856416 -1.79847,-1.398814 -0.79929,-0.542394 -2.1125,-0.685133 -2.65486,-0.913509 -0.13561,-0.05709 -0.37488,-0.082 -0.66258,-0.08735 z"
       id="path4657-1"
       inkscape:connector-curvature="0"
       sodipodi:nodetypes="csscccccsccccscccccscsccccccccccccscscscccsscccscccccccssccccc" />
    <path
       style="fill:url(#linearGradient11536);fill-opacity:1;stroke:none;stroke-width:0.14616099px;stroke-linecap:butt;stroke-linejoin:miter;stroke-opacity:1"
       d="m 104.82491,20.35475 c -0.67139,0.0033 -1.7286,0.607198 -2.18356,1.0354 -1.86668,2.09514 -9.489454,-2.498759 -14.330644,2.112486 -0.62804,0.37111 -0.8564,0.770769 -1.11333,1.256069 -0.2569,0.485301 -1.14189,1.170434 -1.37026,1.284619 -0.2284,0.114191 -1.57004,-0.02856 -2.16958,-0.171283 -0.59948,-0.142734 -1.25603,-0.656579 -2.05538,-0.799318 -0.7993,-0.142734 -1.59861,0.513844 -1.91265,0.713676 -0.314,0.199827 -1.76991,1.027699 -2.28377,1.398809 -0.51387,0.37111 -1.1704,0.970601 -1.59864,1.341711 -0.42817,0.371116 -0.94203,0.713671 -1.34171,0.999145 -0.39962,0.285468 -1.199,0.285474 -1.74138,0.285474 -0.54241,0 -1.68428,0.542387 -2.19811,0.770769 -0.51388,0.228375 -1.0277,0.314017 -1.0277,0.314017 0,0 -0.51383,0.08564 -0.91351,0.171283 -0.39968,0.08564 -1.28459,1.170428 -1.57009,1.570093 -0.28548,0.399653 -0.85637,1.08478 -1.17043,1.198976 -0.314,0.114186 -2.99744,0.228376 -3.25436,0.228376 -0.25688,0 -4.25353,-0.0571 -5.19557,-0.371115 -0.94204,-0.314018 -0.99912,-0.742226 -1.19898,-1.541544 -0.19981,-0.799317 -2.22668,-1.855555 -2.79762,-1.769913 -0.57089,0.08564 -1.94127,0.542393 -3.42564,0.799318 -1.48446,0.256925 -2.25526,0.256925 -3.19727,0.142734 -0.94205,-0.114185 -1.14188,-0.142734 -1.62719,-0.05709 -0.4853,0.08564 -2.34086,2.055388 -2.34086,2.055388 0,0 -0.62803,1.256069 -0.74222,1.827011 -0.11418,0.570937 -0.85643,1.198983 -1.42735,0.913509 -0.57099,-0.285468 -2.96889,-1.256069 -3.59693,-1.256069 -0.62805,0 -1.37026,1.198976 -2.22668,1.884104 -0.85641,0.685133 -1.59863,0.799312 -3.7682,1.084786 -2.16959,0.285468 -1.71281,0.285474 -2.9689,0.51385 -1.25603,0.228381 -1.88408,0.913503 -3.026,1.655728 -1.14184,0.74222 -3.76823,-0.913503 -4.33915,-0.513844 -0.57098,0.399659 -1.71282,-1.341717 -3.91095,-0.856416 -2.19813,0.4853 -1.88409,0.713676 -2.3694,0.713676 -0.48536,0 -2.99744,-1.198971 -3.14018,-1.769919 -0.1427,-0.570936 0.25693,-1.11333 0.59949,-2.426497 0.34262,-1.313162 -0.74223,-0.913503 -1.22753,-0.799318 -0.4853,0.114191 -1.7128201,1.37026 -2.4264901,2.141029 -0.71372,0.770774 -1.22752,1.084792 -1.59864,0.970601 -0.37112,-0.114185 -1.79846,-0.628035 -2.65488,-0.942052 -0.85642,-0.314017 -1.48443,0.456757 -2.02684,0.742225 -0.54238,0.285463 -4.02512,1.427347 -5.62377,1.541538 -1.59865,0.114185 -2.11252,-0.114185 -3.026,-0.685127 -0.91353,-0.570942 -2.22672,-0.228381 -3.7111199,-0.285474 -1.48447,-0.05709 -0.85635,0.114185 -1.42735,0.399659 -0.57092,0.285468 -1.82704,0.399664 -2.62634,0.456757 -0.79935,0.05709 -1.0277,0.342566 -1.71281,0.628035 -0.6851,0.285474 -1.48446,1.712826 -1.82701,2.169578 -0.26737,0.356504 -0.291,1.661987 -0.28862,2.364554 52.86476,0 103.52848,0 158.652924,0 -0.54824,-0.697661 -1.7739,-2.367582 -2.58294,-2.906953 -0.9421,-0.628035 -1.25607,0.399665 -1.62719,0.628035 -0.37111,0.228381 -1.19895,-0.456752 -1.48445,-0.685127 -0.28542,-0.228382 -2.22662,-1.141879 -2.68342,-1.313162 -0.45675,-0.171284 -1.22753,-1.113341 -1.4559,-1.655734 -0.22843,-0.542399 -1.28462,-1.341717 -1.76993,-1.512995 -0.48527,-0.171283 -1.57009,-0.884954 -2.02683,-1.398803 -0.45675,-0.51385 0.45671,-1.655734 0.54239,-2.055393 0.0856,-0.399659 0.22844,-0.371116 1.08479,-1.027694 0.85642,-0.656584 1.82699,-0.913503 3.08308,-1.74137 1.25609,-0.827861 -0.1713,-1.227509 -0.4853,-1.256069 -0.314,-0.02856 -2.94035,0.513844 -4.02514,0.770769 -1.08475,0.256924 -1.6557,0.285473 -2.42649,0.08564 -0.77074,-0.199827 -1.91264,-1.198977 -1.85556,-1.341711 0.0571,-0.142734 1.54156,-1.170428 2.56923,-1.684277 1.02772,-0.51385 0.0856,-1.484434 -0.17128,-1.512995 -0.25692,-0.02856 -3.76821,-0.970601 -3.76821,-0.970601 0,0 -2.08396,0.342567 -2.99744,0.827862 -0.91354,0.485317 -1.74139,0.342566 -2.99744,0.02856 -1.25605,-0.314018 -1.76989,-0.114185 -2.68343,-0.05709 -0.91349,0.05709 -2.25525,-0.399664 -2.19813,-0.685133 0.0571,-0.285473 0.79931,-0.970601 0.45676,-1.370254 -0.34257,-0.399665 -1.39882,-0.942058 -2.45506,-1.427358 -1.05622,-0.485301 -2.79764,-1.084787 -3.45419,-1.170428 -0.041,-0.0055 -0.084,-0.0079 -0.12874,-0.0077 z"
       id="path11521"
       inkscape:connector-curvature="0"
       sodipodi:nodetypes="cccccccccccscccccscccccccccscccccsscccccccccscccccccccccccccccccccccccccccccc" />
  </g>
</svg>
