<?xml version="1.0" encoding="UTF-8"?>
<svg viewBox="0 0 524.40942 372.04724" xmlns="http://www.w3.org/2000/svg" xmlns:xlink="http://www.w3.org/1999/xlink">
 <defs>
  <filter id="m">
   <feGaussianBlur stdDeviation="1.41075"/>
  </filter>
  <filter id="l" x="-.10114" y="-.06176" width="1.2023" height="1.1235">
   <feGaussianBlur stdDeviation="2.49144"/>
  </filter>
  <filter id="b" x="-.07053" y="-.21135" width="1.1411" height="1.4227">
   <feGaussianBlur stdDeviation="4.60356"/>
  </filter>
  <linearGradient id="a">
   <stop stop-color="#f9f9f9" offset="0"/>
   <stop stop-color="#fff" stop-opacity=".42667" offset="1"/>
  </linearGradient>
  <radialGradient id="g" cx="356.5" cy="131.57" r="38.059" gradientTransform="matrix(.81031 -.28781 .58676 1.652 63.962 11.858)" gradientUnits="userSpaceOnUse">
   <stop stop-color="#0f0" stop-opacity="0" offset="0"/>
   <stop stop-color="#0f0" offset="1"/>
  </radialGradient>
  <radialGradient id="f" cx="350.59" cy="113.24" r="38.059" gradientTransform="matrix(2.2681 -.82031 .77157 2.1333 -480.05 138.37)" gradientUnits="userSpaceOnUse">
   <stop stop-color="#fff" offset="0"/>
   <stop stop-color="#0f0" stop-opacity="0" offset="1"/>
  </radialGradient>
  <radialGradient id="k" cx="396.85" cy="137.83" r="38.034" gradientTransform="matrix(1.1398 -.18477 .26694 1.6467 -27.793 -19.486)" gradientUnits="userSpaceOnUse">
   <stop stop-color="#fff9f9" stop-opacity="0" offset="0"/>
   <stop stop-color="#f00" offset="1"/>
  </radialGradient>
  <radialGradient id="j" cx="389.75" cy="124.65" r="38.034" gradientTransform="matrix(.41261 1.6449 -1.1867 .29766 426.74 -585.4)" gradientUnits="userSpaceOnUse">
   <stop stop-color="#fff9f9" offset="0"/>
   <stop stop-color="#f00" stop-opacity="0" offset="1"/>
  </radialGradient>
  <radialGradient id="i" cx="445.37" cy="144.96" r="38.278" gradientTransform="matrix(2.1424 -.06608 .05862 1.9006 -459.45 -95.227)" gradientUnits="userSpaceOnUse">
   <stop stop-color="#ff0" stop-opacity=".0107" offset="0"/>
   <stop stop-color="#ebeb1c" offset="1"/>
  </radialGradient>
  <radialGradient id="h" cx="441.99" cy="119.7" r="38.278" gradientTransform="matrix(2.6607 -.227 .14811 1.736 -690.06 -2.8593)" gradientUnits="userSpaceOnUse">
   <stop stop-color="#fcfcfc" offset="0"/>
   <stop stop-color="#ebeb1c" stop-opacity="0" offset="1"/>
  </radialGradient>
  <radialGradient id="e" cx="200.57" cy="123.82" r="107.48" gradientTransform="matrix(1.3013 -.50247 .32027 .82944 -178.38 90.452)" gradientUnits="userSpaceOnUse" xlink:href="#a"/>
  <radialGradient id="d" cx="200.57" cy="123.82" r="107.48" gradientTransform="matrix(1.3013 -.50247 .32027 .82944 -62.715 36.995)" gradientUnits="userSpaceOnUse" xlink:href="#a"/>
  <radialGradient id="c" cx="200.57" cy="123.82" r="107.48" gradientTransform="matrix(1.3013 -.50247 .32027 .82944 -36.725 88.977)" gradientUnits="userSpaceOnUse" xlink:href="#a"/>
 </defs>
 <g transform="translate(0 2.8836e-6)">
  <path d="m0 0h524.41v372.05h-524.41z" fill="#008fff"/>
  <path d="m17.521 1.8629 53.875 43.156-69.25-40.094v0.21875l68.594 41.031-68.594-28.094v0.3125l68.062 29-68.062-17.531v0.34375l67.719 18.469-67.719-7.8438v0.40625l67.562 8.7812-67.562 1.4062v0.40625l67.594-0.5-67.594 10.75v0.375l67.781-9.8125-67.781 20.562v0.34375l68.156-19.625-68.156 31.344v0.28125l68.719-30.406-68.719 43.812v0.21875l69.406-42.906-69.406 58.969v0.0625l70.281-58.031-63.031 70.438 64-69.531-52.844 78.344 53.938-77.594-41.688 84.812 42.875-84.219-29.75 89.688 31-89.281-17.25 92.938 18.562-92.688-4.4375 94.438 5.7812-94.344 8.4375 94.125-7.125-94.25 21.188 92.125-19.906-92.406 33.562 88.375-32.312-88.844 45.281 82.969-44.094-83.594 56.125 76.031-55.062-76.812 65.969 67.688-65-68.594 74.562 58.062-73.75-59.125 81.781 47.406-81.094-48.531 87.469 35.781-86.969-37.031 91.531 23.562-91.188-24.844 93.875 10.875-93.719-12.188 94.5-2-94.5 0.6875 93.312-14.875-93.531 13.562 90.469-27.438-90.844 26.156 85.875-39.5-86.406 38.281 69.094-44.062h-0.34375l-69.469 42.938 50.562-42.938h-0.625l-50.781 41.938 37.531-41.938h-0.75l-37.781 41.031 27.688-41.031h-0.75l-28.031 40.281 19.812-40.281h-0.78125l-20.219 39.688 13.156-39.688h-0.78125l-13.625 39.25 7.2812-39.25h-0.78125l-7.8125 39 1.8438-39h-0.78125l-2.375 38.938-3.5-38.938h-0.78125l2.9375 39.062-8.9688-39.062h-0.78125l8.4688 39.344-14.938-39.344h-0.78125l14.469 39.812-21.719-39.812h-0.75l21.312 40.438-29.844-40.438h-0.78125l29.531 41.219-40.188-41.219h-0.6875l39.938 42.125-54.125-42.125h-0.59375z" fill="#fff" stroke="#ff0" stroke-width=".29265"/>
  <g transform="matrix(.93864 0 0 .93864 3.1545 15.136)">
   <path d="m542.01 110.7c5.3367 12.227 4.879 26.838-2.5625 39.219-11.081 18.435-40.888 33.589-61.094 27.062v3.2812c20.185 8.268 51.642-7.2918 63.094-26.344 8.2743-13.766 7.9299-30.281 0.5625-43.219z" fill="#999" filter="url(#m)" opacity=".73282"/>
   <path d="m526.39 93.527c-19.998-12.02-46.078-5.3755-58.226 14.835-11.629 19.346-10.491 55.14 7.0163 68.619l-2.301 2.0776 2.9175 1.7537 0.53128-3.0937c20.114 9.4411 52.612-6.3596 64.298-25.801 12.148-20.21 5.762-46.37-14.236-58.39z" fill="url(#i)"/>
   <path d="m474.74 177.83c-0.40397 5.6137-7.0226-11.667-29.249 59.57-20.391 65.354-13.58 49.359-19.536 73.491" fill="none" opacity=".5" stroke="#999" stroke-width="1.9073"/>
   <path d="m526.39 93.527c-19.998-12.02-46.078-5.3755-58.226 14.835-11.629 19.346-10.491 55.14 7.0163 68.619l-2.301 2.0776 2.9175 1.7537 0.53128-3.0937c20.114 9.4411 52.612-6.3596 64.298-25.801 12.148-20.21 5.762-46.37-14.236-58.39z" fill="url(#h)"/>
  </g>
  <path transform="matrix(.62367 0 0 .56459 153.19 55.261)" d="m221.08 117.03c-17.232 0-7.0779-34.321 21.855-28.882 7.5911-32.559 69.6-27.597 78.813-6.6457 39.663-12.882 60.052 24.336 39.358 35.528h-140.03z" fill="url(#c)" fill-rule="evenodd" filter="url(#b)"/>
  <g transform="matrix(.93864 0 0 .93864 1.2773 17.013)">
   <path d="m420.26 65.224c-23.321 0.72855-41.644 20.441-40.908 44.01 0.70479 22.561 21.05 52.033 43.068 53.879l-0.80878 2.9928 3.4023-0.1063-1.2292-2.8883c22.022-2.9595 40.779-33.845 40.071-56.517-0.73628-23.569-20.274-42.099-43.595-41.37z" fill="url(#g)"/>
   <path d="m421.6 164.08c2.7997-0.10288 2.635 0.84656 2.635 0.84656s14.312 11.905 8.8551 62.394c-5.3994 49.955-11.918 80.813-11.918 80.813" fill="none" opacity=".5" stroke="#999" stroke-width="1.9073"/>
   <path d="m420.26 65.224c-23.321 0.72855-41.644 20.441-40.908 44.01 0.70479 22.561 21.05 52.033 43.068 53.879l-0.80878 2.9928 3.4023-0.1063-1.2292-2.8883c22.022-2.9595 40.779-33.845 40.071-56.517-0.73628-23.569-20.274-42.099-43.595-41.37z" fill="url(#f)"/>
  </g>
  <g transform="matrix(.93864 0 0 .93864 3.1545 15.136)">
   <path d="m441.36 169.89c2.7631 0.541 2.4441 1.4344 2.4441 1.4344s4.6999 6.572-6.3167 62.884c-11.037 56.417-14.11 76.549-14.11 76.549" fill="none" opacity=".5" stroke="#999" stroke-width="1.9073"/>
   <path d="m459.34 71.825c-23.016-3.8315-44.83 11.931-48.702 35.191-3.7067 22.266 10.503 55.138 31.738 61.241l-1.3767 2.7778 3.3578 0.55899-0.64261-3.0725c22.176 1.3901 46.595-25.246 50.32-47.622 3.8722-23.26-11.679-45.243-34.694-49.075z" fill="url(#k)"/>
   <path d="m459.34 71.825c-23.016-3.8315-44.83 11.931-48.702 35.191-3.7067 22.266 10.503 55.138 31.738 61.241l-1.3767 2.7778 3.3578 0.55899-0.64261-3.0725c22.176 1.3901 46.595-25.246 50.32-47.622 3.8722-23.26-11.679-45.243-34.694-49.075z" fill="url(#j)"/>
   <path d="m471.25 75.522c14.982 8.5667 23.806 25.953 20.781 44.125-3.725 22.376-28.137 49.015-50.312 47.625l0.1875 0.84375c0.81441 0.32138 1.6318 0.63449 2.4688 0.875l-1.375 2.7812 3.3438 0.5625-0.625-3.0625c22.176 1.3901 46.588-25.249 50.312-47.625 3.2843-19.729-7.4163-38.53-24.781-46.125zm-33.75 90.437c0.87125 0.51981 1.7531 1.011 2.6562 1.4375l0.21875-0.40625c-0.97515-0.28024-1.9305-0.64173-2.875-1.0312z" fill="#999" filter="url(#l)" opacity=".80153"/>
  </g>
  <path transform="matrix(.77553 0 0 .77553 58.246 23.685)" d="m195.08 65.052c-17.232 0-7.0779-34.321 21.855-28.882 7.5911-32.559 69.6-27.597 78.813-6.6457 39.663-12.882 60.052 24.336 39.358 35.528h-140.03z" fill="url(#d)" fill-rule="evenodd" filter="url(#b)"/>
  <path d="m79.424 118.51c-17.232 0-7.0779-34.321 21.855-28.882 7.5911-32.559 69.6-27.597 78.813-6.6457 39.663-12.882 60.052 24.336 39.358 35.528h-140.03z" fill="url(#e)" fill-rule="evenodd" filter="url(#b)"/>
 </g>
</svg>
